<?xml version="1.0" standalone="no"?><!DOCTYPE svg PUBLIC "-//W3C//DTD SVG 1.1//EN" "http://www.w3.org/Graphics/SVG/1.1/DTD/svg11.dtd"><svg t="1611230897094" class="icon" viewBox="0 0 1661 1024" version="1.1" xmlns="http://www.w3.org/2000/svg" p-id="1195" xmlns:xlink="http://www.w3.org/1999/xlink" width="324.4140625" height="200"><defs><style type="text/css">html, * { user-select: text !important; }
</style></defs><path d="M1644.044094 108.044094l17.335434 8.869292-456.365355 906.683464-374.122834-562.79685L456.365354 1024 0 112.47874l17.335433-8.466142 441.448819 881.28504 372.107087-559.168504 371.703937 558.765354z" fill="#2c2c2c" p-id="1196"></path><path d="M1626.708661 99.577953l17.335433 8.466141-441.448818 876.850394-371.703937-558.765354-372.107087 559.168504L17.335433 104.012598l17.335433-8.869291 426.129134 851.855118L830.891339 391.055118l369.285039 555.540158z" fill="#2c2c2c" p-id="1197"></path><path d="M1609.373228 90.708661l17.335433 8.869292-426.532283 847.017323L830.891339 391.055118l-370.091339 555.943307L34.670866 95.143307l17.335433-8.466142 411.212599 821.618898 367.672441-552.314961 367.269291 552.314961z" fill="#2c2c2c" p-id="1198"></path><path d="M1592.440945 82.24252l16.932283 8.466141-411.212598 817.587402-367.269291-552.314961-367.672441 552.314961-411.212599-821.618898 17.335433-8.869291 396.296063 792.188976 365.253544-548.686614 364.850393 548.686614z" fill="#2c2c2c" p-id="1199"></path><path d="M1575.105512 73.373228l17.335433 8.869292-396.699213 787.75433-364.850393-548.686614-365.253544 548.686614L69.341732 77.807874l17.335433-8.466142 381.379528 761.952756 362.834646-545.058268L1193.322835 831.294488z" fill="#2c2c2c" p-id="1200"></path><path d="M1557.770079 64.503937l17.335433 8.869291-381.782677 757.92126L830.891339 286.23622l-362.834646 545.058268-381.379528-761.952756 17.335433-8.869291 366.462993 732.522835 360.415748-541.833071 360.012598 541.833071z" fill="#2c2c2c" p-id="1201"></path><path d="M1540.434646 56.037795l17.335433 8.466142-366.866142 728.491339-360.012598-541.833071-360.415748 541.833071L104.012598 60.472441l16.932284-8.466142 351.949606 702.286614 357.996851-537.801574 357.99685 538.204724z" fill="#2c2c2c" p-id="1202"></path><path d="M1523.099213 47.168504l17.335433 8.869291-351.546457 698.658268-357.99685-538.204724-357.996851 537.801574L120.944882 52.006299l17.335433-8.869291 337.033071 672.856693L830.891339 181.417323l355.577952 534.576378z" fill="#2c2c2c" p-id="1203"></path><path d="M1505.76378 38.702362l17.335433 8.466142-336.629922 668.825197L830.891339 181.417323l-355.577953 534.576378L138.280315 43.137008l17.335433-8.466142L477.732283 677.291339l353.159056-530.948032 353.159055 531.351181z" fill="#2c2c2c" p-id="1204"></path><path d="M1488.428346 29.833071l17.335434 8.869291-321.713386 638.992126-353.159055-531.351181L477.732283 677.291339 155.615748 34.670866l17.335433-8.869291L479.748031 638.992126l351.143308-527.319685 350.740157 527.722835z" fill="#2c2c2c" p-id="1205"></path><path d="M1471.092913 21.366929l17.335433 8.466142-306.79685 609.562205-350.740157-527.722835L479.748031 638.992126 172.951181 25.801575l17.335433-8.466142 291.880315 582.954331L830.891339 76.598425l348.724409 524.094488z" fill="#2c2c2c" p-id="1206"></path><path d="M1436.825197 3.628346l17.335433 8.869292L1177.19685 562.393701 830.891339 41.524409l-346.305512 520.466142L207.622047 8.466142 224.95748 0l262.047244 523.288189L830.891339 6.853543 1174.777953 524.094488z" fill="#2c2c2c" p-id="1207"></path><path d="M1454.16063 12.497638l16.932283 8.869291L1179.615748 600.692913 830.891339 76.598425l-348.72441 523.691339L190.286614 17.335433l17.335433-8.869291 276.96378 553.524409 346.305512-520.466142L1177.19685 562.393701z" fill="#2c2c2c" p-id="1208"></path></svg>